# xmcd
#
# Track frame offsets: 
#        177
#        13022
#        28570
#        42772
#
# Disc length: 775 seconds
#
# Revision: 0
# Processed by: cddbd v1.5.1PL0 Copyright (c) Steve Scherf et al.
# Submitted via: ExactAudioCopy v0.95a5
#
DISCID=24030504
DTITLE=Bluehearts, The - Delirious
DYEAR=1993
DGENRE=Country
TTITLE0=All Roads Lead You Home
TTITLE1=Delirious
TTITLE2=Heartbreak Ridge
TTITLE3=Somewhere The Sun Still Shines
EXTD=
EXTT0=
EXTT1=
EXTT2=
EXTT3=
PLAYORDER=
